<?xml version="1.0" standalone="no"?>
<!DOCTYPE svg PUBLIC "-//W3C//DTD SVG 20010904//EN"
 "http://www.w3.org/TR/2001/REC-SVG-20010904/DTD/svg10.dtd">
<svg version="1.0" xmlns="http://www.w3.org/2000/svg"
 width="360.000000pt" height="360.000000pt" viewBox="0 0 360.000000 360.000000"
 preserveAspectRatio="xMidYMid meet">
<metadata>
Created by potrace 1.16, written by Peter Selinger 2001-2019
</metadata>
<g transform="translate(0.000000,360.000000) scale(0.100000,-0.100000)"
fill="#000000" stroke="none">
<path d="M1725 2831 c-48 -22 -79 -54 -100 -103 -12 -31 -15 -94 -15 -388 l0
-350 -338 0 c-269 0 -349 -3 -388 -15 -178 -53 -176 -315 4 -365 22 -6 175
-10 380 -10 l342 0 0 -352 c0 -321 2 -357 19 -393 65 -144 273 -151 341 -11
19 40 20 61 20 399 l0 357 341 0 c345 0 405 5 444 38 113 95 103 253 -20 324
-39 23 -45 23 -402 26 l-363 3 0 363 0 363 -26 39 c-59 86 -152 115 -239 75z"/>
</g>
</svg>
